<svg preserveAspectRatio="none" width="100%" height="100%" overflow="visible" style="display: block;" viewBox="0 0 32 32" fill="none" xmlns="http://www.w3.org/2000/svg">
<g id="Networks" clip-path="url(#clip0_0_153)">
<path id="Base" d="M16 32C24.9204 32 32 24.7788 32 16C32 7.07965 24.7788 0 16 0C7.07965 0 0 7.22124 0 16C0 24.7788 7.22124 32 16 32Z" fill="var(--fill-0, #2C374B)"/>
<g id="Logo" clip-path="url(#clip1_0_153)">
<path id="Vector" d="M6.88277 11.5713V20.3059C6.88277 20.8601 7.17832 21.3773 7.66387 21.6517L15.2215 26.0164C15.7018 26.2961 16.2982 26.2961 16.7785 26.0164L24.3414 21.6517C24.8217 21.372 25.1225 20.8601 25.1225 20.3059V11.5713C25.1225 11.0171 24.827 10.4999 24.3414 10.2202L16.7785 5.85554C16.2982 5.57582 15.7018 5.57582 15.2215 5.85554L7.65859 10.2202C7.18359 10.4999 6.88277 11.0119 6.88277 11.5713Z" fill="var(--fill-0, #213147)"/>
<g id="Group">
<path id="Vector_2" d="M17.6546 17.6301L16.5726 20.5856C16.541 20.6648 16.541 20.7598 16.5726 20.8389L18.4251 25.9266L20.5731 24.6864L17.9976 17.6248C17.9396 17.4665 17.7126 17.4665 17.6546 17.6301Z" fill="var(--fill-0, #12AAFF)"/>
<path id="Vector_3" d="M19.8131 12.6532C19.7551 12.4896 19.5281 12.4896 19.4648 12.6532L18.3829 15.6087C18.3512 15.6932 18.3512 15.7829 18.3829 15.8621L21.4228 24.1956L23.5709 22.9553L19.8131 12.6532Z" fill="var(--fill-0, #12AAFF)"/>
</g>
<path id="Vector_4" d="M16.0026 6.17748C16.0554 6.17748 16.1082 6.19331 16.1557 6.2197L24.3361 10.9432C24.4311 10.996 24.4892 11.0963 24.4892 11.2071V20.6542C24.4892 20.7651 24.4311 20.8653 24.3361 20.9181L16.1557 25.6469C16.1082 25.6733 16.0554 25.6892 16.0026 25.6892C15.9499 25.6892 15.8971 25.6733 15.8496 25.6469L7.66914 20.9234C7.57414 20.8706 7.51609 20.7703 7.51609 20.6595V11.2071C7.51609 11.0963 7.57414 10.996 7.66914 10.9432L15.8496 6.2197C15.8971 6.19331 15.9499 6.17748 16.0026 6.17748ZM16.0026 4.8C15.7124 4.8 15.4168 4.87917 15.1582 5.02694L6.97776 9.75049C6.46055 10.0513 6.13333 10.6055 6.13333 11.2071V20.6542C6.13333 21.2559 6.45527 21.8153 6.97776 22.1161L15.1582 26.8397C15.4168 26.9927 15.7071 27.0666 16.0026 27.0666C16.2982 27.0666 16.5885 26.9875 16.8471 26.8397L25.0275 22.1161C25.55 21.8153 25.8719 21.2612 25.8719 20.6542V11.2071C25.8719 10.6055 25.55 10.046 25.0275 9.74521L16.8471 5.02694C16.5832 4.87917 16.2929 4.8 16.0026 4.8Z" fill="var(--fill-0, #9DCCED)"/>
<path id="Vector_5" d="M10.593 24.2061L11.3477 22.1478L12.8571 23.4039L11.448 24.6969L10.593 24.2061Z" fill="var(--fill-0, #213147)"/>
<g id="Group_2">
<path id="Vector_6" d="M15.3113 10.5369H13.2371C13.0841 10.5369 12.9416 10.6319 12.8888 10.7796L8.44497 22.9711L10.593 24.2114L15.4907 10.7849C15.5329 10.6635 15.4432 10.5369 15.3113 10.5369Z" fill="var(--fill-0, white)"/>
<path id="Vector_7" d="M18.9423 10.5369H16.8682C16.7151 10.5369 16.5726 10.6319 16.5199 10.7796L11.448 24.6969L13.596 25.9372L19.1165 10.7849C19.164 10.6635 19.069 10.5369 18.9423 10.5369Z" fill="var(--fill-0, white)"/>
</g>
</g>
</g>
<defs>
<clipPath id="clip0_0_153">
<rect width="32" height="32" fill="white"/>
</clipPath>
<clipPath id="clip1_0_153">
<rect width="19.7333" height="22.2719" fill="white" transform="translate(6.13333 4.8)"/>
</clipPath>
</defs>
</svg>
