<svg preserveAspectRatio="none" width="100%" height="100%" overflow="visible" style="display: block;" viewBox="0 0 31.9787 31.9575" fill="none" xmlns="http://www.w3.org/2000/svg">
<g id="avalanche-avax-logo 1">
<path id="Vector" d="M25.8576 5.46812H6.0998V23.4256H25.8576V5.46812Z" fill="var(--fill-0, white)"/>
<path id="Vector_2" fill-rule="evenodd" clip-rule="evenodd" d="M31.9787 15.9788C31.9787 24.8037 24.8201 31.9575 15.9894 31.9575C7.15868 31.9575 2.37022e-06 24.8037 2.37022e-06 15.9788C2.37022e-06 7.15395 7.15868 3.63607e-05 15.9894 3.63607e-05C24.8201 3.63607e-05 31.9787 7.15395 31.9787 15.9788ZM11.4584 22.3375H8.35535C7.70329 22.3375 7.38121 22.3375 7.18482 22.2119C6.9727 22.0745 6.84308 21.8468 6.82737 21.5956C6.81558 21.3641 6.97664 21.0814 7.29873 20.5161L14.9606 7.01993C15.2867 6.44682 15.4516 6.16027 15.6598 6.05429C15.8837 5.94046 16.1508 5.94046 16.3747 6.05429C16.5829 6.16027 16.7479 6.44682 17.0739 7.01993L18.649 9.76767L18.657 9.7817C19.0092 10.3965 19.1877 10.7083 19.2657 11.0355C19.3521 11.3928 19.3521 11.7696 19.2657 12.1268C19.1871 12.4565 19.0104 12.7706 18.6529 13.3947L14.6283 20.5043L14.6179 20.5225C14.2634 21.1424 14.0838 21.4566 13.8349 21.6937C13.5638 21.9528 13.2378 22.1411 12.8804 22.2473C12.5543 22.3375 12.189 22.3375 11.4584 22.3375ZM19.2947 22.3375H23.7411C24.3971 22.3375 24.7271 22.3375 24.9236 22.2081C25.1357 22.0707 25.2691 21.839 25.2811 21.5879C25.2924 21.3639 25.1348 21.0922 24.8261 20.5598C24.8154 20.5416 24.8048 20.5232 24.7939 20.5044L22.5667 16.6968L22.5414 16.654C22.2284 16.1251 22.0704 15.858 21.8675 15.7548C21.6438 15.6409 21.3804 15.6409 21.1566 15.7548C20.9523 15.8607 20.7874 16.1394 20.4614 16.7008L18.242 20.5084L18.2344 20.5215C17.9096 21.0819 17.7472 21.362 17.7589 21.5917C17.7746 21.843 17.9042 22.0745 18.1163 22.2119C18.3088 22.3375 18.6388 22.3375 19.2947 22.3375Z" fill="var(--fill-0, #E84142)"/>
</g>
</svg>
