<svg preserveAspectRatio="none" width="100%" height="100%" overflow="visible" style="display: block;" viewBox="0 0 24 24" fill="none" xmlns="http://www.w3.org/2000/svg">
<g id="heroicons:bell-solid">
<path id="Vector" fill-rule="evenodd" clip-rule="evenodd" d="M5.25 9C5.25 7.20979 5.96116 5.4929 7.22703 4.22703C8.4929 2.96116 10.2098 2.25 12 2.25C13.7902 2.25 15.5071 2.96116 16.773 4.22703C18.0388 5.4929 18.75 7.20979 18.75 9V9.75C18.75 11.873 19.55 13.807 20.868 15.27C20.9501 15.361 21.0087 15.4707 21.0385 15.5896C21.0684 15.7084 21.0687 15.8328 21.0394 15.9518C21.0101 16.0708 20.9521 16.1808 20.8704 16.2722C20.7888 16.3636 20.686 16.4335 20.571 16.476C19.027 17.046 17.411 17.466 15.74 17.719C15.7467 17.8123 15.75 17.906 15.75 18C15.7491 18.5037 15.6468 19.0021 15.4491 19.4654C15.2514 19.9287 14.9624 20.3474 14.5994 20.6965C14.2363 21.0457 13.8066 21.3181 13.3359 21.4976C12.8653 21.677 12.3633 21.7598 11.8599 21.741C11.3566 21.7222 10.8621 21.6021 10.4062 21.3881C9.95024 21.174 9.54209 20.8702 9.20611 20.4949C8.87012 20.1196 8.61319 19.6805 8.45063 19.2038C8.28808 18.727 8.22325 18.2224 8.26 17.72C6.61167 17.4701 4.99302 17.0533 3.429 16.476C3.31396 16.4337 3.21105 16.3638 3.12928 16.2724C3.04751 16.1811 2.98938 16.0711 2.95997 15.9521C2.93056 15.8331 2.93078 15.7087 2.96059 15.5898C2.99041 15.4708 3.04892 15.3611 3.131 15.27C4.49756 13.7565 5.25279 11.7891 5.25 9.75V9ZM9.752 17.9L9.75 18C9.7507 18.2992 9.81109 18.5953 9.92763 18.8709C10.0442 19.1466 10.2145 19.3961 10.4287 19.6051C10.6429 19.8141 10.8966 19.9783 11.175 20.088C11.4534 20.1977 11.7508 20.2508 12.05 20.2441C12.3492 20.2375 12.644 20.1712 12.9172 20.0492C13.1905 19.9273 13.4366 19.752 13.6413 19.5337C13.846 19.3154 14.0051 19.0585 14.1093 18.778C14.2134 18.4975 14.2606 18.199 14.248 17.9C12.7524 18.035 11.2476 18.035 9.752 17.9Z" fill="var(--fill-0, black)"/>
</g>
</svg>
