<svg preserveAspectRatio="none" width="100%" height="100%" overflow="visible" style="display: block;" viewBox="0 0 32 32" fill="none" xmlns="http://www.w3.org/2000/svg">
<g id="Networks" clip-path="url(#clip0_0_272)">
<path id="Base" fill-rule="evenodd" clip-rule="evenodd" d="M16 0C24.8372 0 32 7.16282 32 16C32 24.8372 24.8372 32 16 32C7.16282 32 0 24.8372 0 16C0 7.16282 7.16282 0 16 0Z" fill="var(--fill-0, #F0B90B)"/>
<g id="Logo">
<path id="Vector" d="M8.79359 16L8.80513 20.2307L12.4 22.3461V24.8231L6.70128 21.4807V14.7628L8.79359 16ZM8.79359 11.7692V14.2346L6.7 12.9961V10.5307L8.79359 9.29229L10.8974 10.5307L8.79359 11.7692ZM13.9013 10.5307L15.9949 9.29229L18.0987 10.5307L15.9949 11.7692L13.9013 10.5307Z" fill="var(--fill-0, white)"/>
<path id="Vector_2" d="M10.3064 19.3538V16.8769L12.4 18.1154V20.5807L10.3064 19.3538ZM13.9013 23.2333L15.9949 24.4718L18.0987 23.2333V25.6987L15.9949 26.9372L13.9013 25.6987V23.2333ZM21.1013 10.5307L23.1949 9.29229L25.2987 10.5307V12.9961L23.1949 14.2346V11.7692L21.1013 10.5307ZM23.1949 20.2307L23.2064 16L25.3 14.7615V21.4795L19.6013 24.8218V22.3449L23.1949 20.2307Z" fill="var(--fill-0, white)"/>
<path id="Vector_3" d="M21.6936 19.3538L19.6 20.5807V18.1154L21.6936 16.8769V19.3538Z" fill="var(--fill-0, white)"/>
<path id="Vector_4" d="M21.6936 12.6462L21.7051 15.1231L18.1 17.2385V21.4795L16.0064 22.7064L13.9128 21.4795V17.2385L10.3077 15.1231V12.6462L12.4102 11.4077L15.9936 13.5334L19.5987 11.4077L21.7026 12.6462H21.6936ZM10.3064 8.41669L15.9949 5.06284L21.6936 8.41669L19.6 9.65515L15.9949 7.52951L12.4 9.65515L10.3064 8.41669Z" fill="var(--fill-0, white)"/>
</g>
</g>
<defs>
<clipPath id="clip0_0_272">
<rect width="32" height="32" fill="white"/>
</clipPath>
</defs>
</svg>
