<svg preserveAspectRatio="none" width="100%" height="100%" overflow="visible" style="display: block;" viewBox="0 0 12 12" fill="none" xmlns="http://www.w3.org/2000/svg">
<g id="heroicons:check-16-solid">
<path id="Vector" fill-rule="evenodd" clip-rule="evenodd" d="M9.312 2.532C9.43611 2.61475 9.52227 2.74342 9.55153 2.88969C9.58078 3.03597 9.55074 3.18788 9.468 3.312L5.718 8.937C5.67181 9.00618 5.61086 9.06426 5.53952 9.10705C5.46819 9.14984 5.38825 9.17628 5.30547 9.18445C5.22269 9.19263 5.13913 9.18235 5.0608 9.15434C4.98247 9.12634 4.91133 9.08131 4.8525 9.0225L2.6025 6.7725C2.50314 6.66587 2.44905 6.52483 2.45162 6.37911C2.45419 6.23338 2.51322 6.09434 2.61628 5.99128C2.71934 5.88822 2.85838 5.82919 3.00411 5.82662C3.14983 5.82405 3.29087 5.87814 3.3975 5.9775L5.16225 7.74225L8.532 2.68725C8.61487 2.56326 8.74359 2.47725 8.88986 2.44814C9.03613 2.41902 9.18797 2.44919 9.312 2.532Z" fill="var(--fill-0, white)"/>
</g>
</svg>
