<svg preserveAspectRatio="none" width="100%" height="100%" overflow="visible" style="display: block;" viewBox="0 0 20 20" fill="none" xmlns="http://www.w3.org/2000/svg">
<g id="heroicons:chevron-down-20-solid">
<path id="Vector" fill-rule="evenodd" clip-rule="evenodd" d="M5.22 8.22C5.36063 8.07955 5.55125 8.00066 5.75 8.00066C5.94875 8.00066 6.13937 8.07955 6.28 8.22L10 11.94L13.72 8.22C13.7887 8.14631 13.8715 8.08721 13.9635 8.04622C14.0555 8.00523 14.1548 7.98319 14.2555 7.98141C14.3562 7.97963 14.4562 7.99816 14.5496 8.03588C14.643 8.0736 14.7278 8.12974 14.799 8.20096C14.8703 8.27218 14.9264 8.35701 14.9641 8.4504C15.0018 8.54379 15.0204 8.64382 15.0186 8.74452C15.0168 8.84522 14.9948 8.94454 14.9538 9.03654C14.9128 9.12854 14.8537 9.21134 14.78 9.28L10.53 13.53C10.3894 13.6705 10.1988 13.7493 10 13.7493C9.80125 13.7493 9.61063 13.6705 9.47 13.53L5.22 9.28C5.07955 9.13937 5.00066 8.94875 5.00066 8.75C5.00066 8.55125 5.07955 8.36063 5.22 8.22Z" fill="var(--fill-0, black)"/>
</g>
</svg>
