<svg preserveAspectRatio="none" width="100%" height="100%" overflow="visible" style="display: block;" viewBox="0 0 24 24" fill="none" xmlns="http://www.w3.org/2000/svg">
<g id="heroicons:ellipsis-vertical-20-solid">
<path id="Vector" d="M12 3.6C12.4774 3.6 12.9352 3.78964 13.2728 4.12721C13.6104 4.46477 13.8 4.92261 13.8 5.4C13.8 5.87739 13.6104 6.33523 13.2728 6.67279C12.9352 7.01036 12.4774 7.2 12 7.2C11.5226 7.2 11.0648 7.01036 10.7272 6.67279C10.3896 6.33523 10.2 5.87739 10.2 5.4C10.2 4.92261 10.3896 4.46477 10.7272 4.12721C11.0648 3.78964 11.5226 3.6 12 3.6ZM12 10.2C12.4774 10.2 12.9352 10.3896 13.2728 10.7272C13.6104 11.0648 13.8 11.5226 13.8 12C13.8 12.4774 13.6104 12.9352 13.2728 13.2728C12.9352 13.6104 12.4774 13.8 12 13.8C11.5226 13.8 11.0648 13.6104 10.7272 13.2728C10.3896 12.9352 10.2 12.4774 10.2 12C10.2 11.5226 10.3896 11.0648 10.7272 10.7272C11.0648 10.3896 11.5226 10.2 12 10.2ZM13.8 18.6C13.8 18.1226 13.6104 17.6648 13.2728 17.3272C12.9352 16.9896 12.4774 16.8 12 16.8C11.5226 16.8 11.0648 16.9896 10.7272 17.3272C10.3896 17.6648 10.2 18.1226 10.2 18.6C10.2 19.0774 10.3896 19.5352 10.7272 19.8728C11.0648 20.2104 11.5226 20.4 12 20.4C12.4774 20.4 12.9352 20.2104 13.2728 19.8728C13.6104 19.5352 13.8 19.0774 13.8 18.6Z" fill="var(--fill-0, black)"/>
</g>
</svg>
