<svg preserveAspectRatio="none" width="100%" height="100%" overflow="visible" style="display: block;" viewBox="0 0 24 24" fill="none" xmlns="http://www.w3.org/2000/svg">
<g id="heroicons:cog-6-tooth-solid">
<path id="Vector" fill-rule="evenodd" clip-rule="evenodd" d="M11.078 2.25C10.161 2.25 9.379 2.913 9.228 3.817L9.05 4.889C9.03 5.009 8.935 5.149 8.753 5.237C8.41036 5.40173 8.08074 5.59228 7.767 5.807C7.601 5.922 7.433 5.933 7.317 5.89L6.3 5.508C5.88424 5.35224 5.4267 5.34906 5.00882 5.49904C4.59093 5.64901 4.23983 5.94241 4.018 6.327L3.096 7.924C2.87409 8.30836 2.79571 8.75897 2.87482 9.19569C2.95392 9.6324 3.18537 10.0269 3.528 10.309L4.368 11.001C4.463 11.079 4.538 11.23 4.522 11.431C4.49351 11.8101 4.49351 12.1909 4.522 12.57C4.537 12.77 4.463 12.922 4.369 13L3.528 13.692C3.18537 13.9741 2.95392 14.3686 2.87482 14.8053C2.79571 15.242 2.87409 15.6926 3.096 16.077L4.018 17.674C4.23999 18.0584 4.59116 18.3516 5.00903 18.5014C5.42689 18.6512 5.88435 18.6478 6.3 18.492L7.319 18.11C7.434 18.067 7.602 18.079 7.769 18.192C8.081 18.4067 8.40933 18.5967 8.754 18.762C8.936 18.85 9.031 18.99 9.051 19.112L9.229 20.183C9.30212 20.6208 9.52813 21.0186 9.86686 21.3055C10.2056 21.5924 10.6351 21.7499 11.079 21.75H12.923C13.839 21.75 14.622 21.087 14.773 20.183L14.951 19.111C14.971 18.991 15.065 18.851 15.248 18.762C15.592 18.5967 15.9203 18.4067 16.233 18.192C16.4 18.078 16.568 18.067 16.683 18.11L17.703 18.492C18.1185 18.6472 18.5756 18.6501 18.993 18.5002C19.4105 18.3502 19.7612 18.0571 19.983 17.673L20.906 16.076C21.1279 15.6916 21.2063 15.241 21.1272 14.8043C21.0481 14.3676 20.8166 13.9731 20.474 13.691L19.634 12.999C19.539 12.921 19.464 12.77 19.48 12.569C19.5085 12.1899 19.5085 11.8091 19.48 11.43C19.464 11.23 19.539 11.078 19.633 11L20.473 10.308C21.181 9.726 21.364 8.718 20.906 7.923L19.984 6.326C19.762 5.94159 19.4108 5.6484 18.993 5.49861C18.5751 5.34883 18.1176 5.35215 17.702 5.508L16.682 5.89C16.568 5.933 16.4 5.921 16.233 5.807C15.9196 5.59233 15.5903 5.40178 15.248 5.237C15.065 5.15 14.971 5.01 14.951 4.889L14.772 3.817C14.6991 3.37906 14.4731 2.98122 14.1343 2.69427C13.7956 2.40732 13.366 2.24989 12.922 2.25H11.078ZM12 15.75C12.9946 15.75 13.9484 15.3549 14.6516 14.6517C15.3549 13.9484 15.75 12.9946 15.75 12C15.75 11.0054 15.3549 10.0516 14.6516 9.34835C13.9484 8.64509 12.9946 8.25 12 8.25C11.0054 8.25 10.0516 8.64509 9.34835 9.34835C8.64509 10.0516 8.25 11.0054 8.25 12C8.25 12.9946 8.64509 13.9484 9.34835 14.6517C10.0516 15.3549 11.0054 15.75 12 15.75Z" fill="var(--fill-0, black)"/>
</g>
</svg>
