<svg  viewBox="0 0 20 20" fill="none" xmlns="http://www.w3.org/2000/svg">
<g id="heroicons:arrows-up-down-20-solid">
<path id="Vector" fill-rule="evenodd" clip-rule="evenodd" d="M2.24 6.8C2.31222 6.86698 2.39693 6.91908 2.48929 6.95332C2.58165 6.98756 2.67985 7.00328 2.77829 6.99956C2.87672 6.99585 2.97345 6.97278 3.06297 6.93167C3.15249 6.89057 3.23303 6.83224 3.3 6.76L5.25 4.66V13.25C5.25 13.4489 5.32902 13.6397 5.46967 13.7803C5.61032 13.921 5.80109 14 6 14C6.19891 14 6.38968 13.921 6.53033 13.7803C6.67098 13.6397 6.75 13.4489 6.75 13.25V4.66L8.7 6.76C8.76697 6.83223 8.84752 6.89056 8.93703 6.93165C9.02655 6.97275 9.12329 6.99582 9.22172 6.99953C9.32015 7.00325 9.41834 6.98754 9.5107 6.9533C9.60306 6.91907 9.68777 6.86697 9.76 6.8C9.83223 6.73303 9.89056 6.65248 9.93166 6.56297C9.97275 6.47345 9.99582 6.37671 9.99953 6.27828C10.0032 6.17985 9.98754 6.08166 9.9533 5.9893C9.91907 5.89694 9.86697 5.81223 9.8 5.74L6.55 2.24C6.47979 2.16427 6.3947 2.10386 6.30006 2.06254C6.20542 2.02123 6.10327 1.9999 6 1.9999C5.89673 1.9999 5.79458 2.02123 5.69994 2.06254C5.6053 2.10386 5.52021 2.16427 5.45 2.24L2.2 5.74C2.13302 5.81222 2.08092 5.89693 2.04668 5.98929C2.01244 6.08165 1.99672 6.17985 2.00044 6.27829C2.00415 6.37672 2.02722 6.47345 2.06833 6.56297C2.10943 6.65249 2.16777 6.73303 2.24 6.8ZM10.24 13.2C10.1678 13.267 10.1094 13.3475 10.0683 13.437C10.0272 13.5265 10.0042 13.6233 10.0004 13.7217C9.99673 13.8201 10.0124 13.9183 10.0467 14.0107C10.0809 14.1031 10.133 14.1878 10.2 14.26L13.45 17.76C13.5202 17.8357 13.6053 17.8961 13.6999 17.9375C13.7946 17.9788 13.8967 18.0001 14 18.0001C14.1033 18.0001 14.2054 17.9788 14.3001 17.9375C14.3947 17.8961 14.4798 17.8357 14.55 17.76L17.8 14.26C17.867 14.1878 17.9191 14.1031 17.9533 14.0107C17.9875 13.9183 18.0032 13.8201 17.9995 13.7217C17.9958 13.6233 17.9728 13.5266 17.9317 13.437C17.8906 13.3475 17.8322 13.267 17.76 13.2C17.6878 13.133 17.6031 13.0809 17.5107 13.0467C17.4183 13.0125 17.3201 12.9968 17.2217 13.0005C17.1233 13.0042 17.0266 13.0272 16.937 13.0683C16.8475 13.1094 16.767 13.1678 16.7 13.24L14.75 15.34V6.75C14.75 6.55109 14.671 6.36032 14.5303 6.21967C14.3897 6.07902 14.1989 6 14 6C13.8011 6 13.6103 6.07902 13.4697 6.21967C13.329 6.36032 13.25 6.55109 13.25 6.75V15.34L11.3 13.24C11.233 13.1678 11.1525 13.1094 11.063 13.0683C10.9735 13.0272 10.8767 13.0042 10.7783 13.0004C10.6799 12.9967 10.5817 13.0124 10.4893 13.0467C10.3969 13.0809 10.3122 13.133 10.24 13.2Z" fill="var(--fill-0, black)"/>
</g>
</svg>
