<svg  viewBox="0 0 24 24" fill="none" xmlns="http://www.w3.org/2000/svg">
<g id="heroicons:chart-bar-square-16-solid">
<path id="Vector" fill-rule="evenodd" clip-rule="evenodd" d="M6 3C5.20435 3 4.44129 3.31607 3.87868 3.87868C3.31607 4.44129 3 5.20435 3 6V18C3 18.7956 3.31607 19.5587 3.87868 20.1213C4.44129 20.6839 5.20435 21 6 21H18C18.7956 21 19.5587 20.6839 20.1213 20.1213C20.6839 19.5587 21 18.7956 21 18V6C21 5.20435 20.6839 4.44129 20.1213 3.87868C19.5587 3.31607 18.7956 3 18 3H6ZM7.125 13.5C6.82663 13.5 6.54048 13.6185 6.3295 13.8295C6.11853 14.0405 6 14.3266 6 14.625V16.875C6 17.1734 6.11853 17.4595 6.3295 17.6705C6.54048 17.8815 6.82663 18 7.125 18C7.42337 18 7.70952 17.8815 7.9205 17.6705C8.13147 17.4595 8.25 17.1734 8.25 16.875V14.625C8.25 14.3266 8.13147 14.0405 7.9205 13.8295C7.70952 13.6185 7.42337 13.5 7.125 13.5ZM10.875 10.875C10.875 10.5766 10.9935 10.2905 11.2045 10.0795C11.4155 9.86853 11.7016 9.75 12 9.75C12.2984 9.75 12.5845 9.86853 12.7955 10.0795C13.0065 10.2905 13.125 10.5766 13.125 10.875V16.875C13.125 17.1734 13.0065 17.4595 12.7955 17.6705C12.5845 17.8815 12.2984 18 12 18C11.7016 18 11.4155 17.8815 11.2045 17.6705C10.9935 17.4595 10.875 17.1734 10.875 16.875V10.875ZM16.875 6C16.5766 6 16.2905 6.11853 16.0795 6.3295C15.8685 6.54048 15.75 6.82663 15.75 7.125V16.875C15.75 17.1734 15.8685 17.4595 16.0795 17.6705C16.2905 17.8815 16.5766 18 16.875 18C17.1734 18 17.4595 17.8815 17.6705 17.6705C17.8815 17.4595 18 17.1734 18 16.875V7.125C18 6.82663 17.8815 6.54048 17.6705 6.3295C17.4595 6.11853 17.1734 6 16.875 6Z" fill="var(--fill-0, #005AE5)"/>
</g>
</svg>
