<svg  viewBox="0 0 24 24" fill="none" xmlns="http://www.w3.org/2000/svg">
<g id="heroicons:chevron-double-right-16-solid">
<path id="Vector" fill-rule="evenodd" clip-rule="evenodd" d="M19.17 11.3925C19.3807 11.6034 19.499 11.8894 19.499 12.1875C19.499 12.4856 19.3807 12.7716 19.17 12.9825L14.295 17.8575C14.0817 18.0562 13.7997 18.1644 13.5082 18.1593C13.2168 18.1541 12.9387 18.0361 12.7326 17.8299C12.5264 17.6238 12.4084 17.3457 12.4032 17.0543C12.3981 16.7628 12.5063 16.4808 12.705 16.2675L16.785 12.1875L12.705 8.1075C12.5063 7.89424 12.3981 7.61217 12.4032 7.32072C12.4084 7.02926 12.5264 6.75119 12.7326 6.54507C12.9387 6.33895 13.2168 6.22088 13.5082 6.21574C13.7997 6.2106 14.0817 6.31878 14.295 6.5175L19.17 11.3925ZM6.795 6.5175L11.67 11.3925C11.8807 11.6034 11.999 11.8894 11.999 12.1875C11.999 12.4856 11.8807 12.7716 11.67 12.9825L6.795 17.8575C6.58174 18.0562 6.29967 18.1644 6.00822 18.1593C5.71676 18.1541 5.43869 18.0361 5.23257 17.8299C5.02645 17.6238 4.90838 17.3457 4.90324 17.0543C4.8981 16.7628 5.00628 16.4808 5.205 16.2675L9.285 12.1875L5.205 8.1075C5.00628 7.89424 4.8981 7.61217 4.90324 7.32072C4.90838 7.02926 5.02645 6.75119 5.23257 6.54507C5.43869 6.33895 5.71676 6.22088 6.00822 6.21574C6.29967 6.2106 6.58174 6.31878 6.795 6.5175Z" fill="var(--fill-0, black)"/>
</g>
</svg>
