<svg  viewBox="0 0 20 20" fill="none" xmlns="http://www.w3.org/2000/svg">
<g id="heroicons:chevron-right-16-solid">
<path id="Vector" d="M8.43735 5.50082C8.5244 5.50082 8.60914 5.52646 8.68051 5.57407L8.74692 5.62875L12.8084 9.69125C12.8903 9.77324 12.9363 9.884 12.9364 9.99985C12.9364 10.087 12.9108 10.1716 12.8631 10.243L12.8084 10.3094L8.75961 14.3592C8.67668 14.4365 8.56631 14.4784 8.45297 14.4764C8.3397 14.4744 8.23133 14.4286 8.15122 14.3485C8.07115 14.2683 8.02528 14.16 8.02329 14.0467C8.02135 13.9354 8.06185 13.8273 8.13657 13.745L11.8817 9.99985L8.12875 6.24692C8.04683 6.16489 8.00082 6.05329 8.00082 5.93735C8.00085 5.85054 8.02668 5.76639 8.07407 5.69516L8.12875 5.62875C8.21073 5.547 8.32157 5.50086 8.43735 5.50082Z" fill="var(--fill-0, black)" stroke="var(--stroke-0, black)"/>
</g>
</svg>
