<svg  viewBox="0 0 16 16" fill="none" xmlns="http://www.w3.org/2000/svg">
<g id="heroicons:x-mark-20-solid">
<g id="Vector">
<mask id="path-1-inside-1_0_7" fill="white">
<path d="M5.024 4.176C4.91026 4.07002 4.75982 4.01232 4.60438 4.01506C4.44894 4.0178 4.30063 4.08077 4.1907 4.1907C4.08077 4.30063 4.0178 4.44894 4.01506 4.60438C4.01232 4.75982 4.07002 4.91026 4.176 5.024L7.152 8L4.176 10.976C4.11705 11.0309 4.06977 11.0972 4.03698 11.1708C4.00418 11.2444 3.98655 11.3238 3.98513 11.4044C3.98371 11.4849 3.99852 11.565 4.0287 11.6397C4.05888 11.7144 4.10379 11.7823 4.16077 11.8392C4.21774 11.8962 4.28561 11.9411 4.36032 11.9713C4.43503 12.0015 4.51506 12.0163 4.59562 12.0149C4.67618 12.0135 4.75563 11.9958 4.82923 11.963C4.90283 11.9302 4.96907 11.8829 5.024 11.824L8 8.848L10.976 11.824C11.0309 11.8829 11.0972 11.9302 11.1708 11.963C11.2444 11.9958 11.3238 12.0135 11.4044 12.0149C11.4849 12.0163 11.565 12.0015 11.6397 11.9713C11.7144 11.9411 11.7823 11.8962 11.8392 11.8392C11.8962 11.7823 11.9411 11.7144 11.9713 11.6397C12.0015 11.565 12.0163 11.4849 12.0149 11.4044C12.0135 11.3238 11.9958 11.2444 11.963 11.1708C11.9302 11.0972 11.8829 11.0309 11.824 10.976L8.848 8L11.824 5.024C11.93 4.91026 11.9877 4.75982 11.9849 4.60438C11.9822 4.44894 11.9192 4.30063 11.8093 4.1907C11.6994 4.08077 11.5511 4.0178 11.3956 4.01506C11.2402 4.01232 11.0897 4.07002 10.976 4.176L8 7.152L5.024 4.176Z"/>
</mask>
<path d="M5.024 4.176C4.91026 4.07002 4.75982 4.01232 4.60438 4.01506C4.44894 4.0178 4.30063 4.08077 4.1907 4.1907C4.08077 4.30063 4.0178 4.44894 4.01506 4.60438C4.01232 4.75982 4.07002 4.91026 4.176 5.024L7.152 8L4.176 10.976C4.11705 11.0309 4.06977 11.0972 4.03698 11.1708C4.00418 11.2444 3.98655 11.3238 3.98513 11.4044C3.98371 11.4849 3.99852 11.565 4.0287 11.6397C4.05888 11.7144 4.10379 11.7823 4.16077 11.8392C4.21774 11.8962 4.28561 11.9411 4.36032 11.9713C4.43503 12.0015 4.51506 12.0163 4.59562 12.0149C4.67618 12.0135 4.75563 11.9958 4.82923 11.963C4.90283 11.9302 4.96907 11.8829 5.024 11.824L8 8.848L10.976 11.824C11.0309 11.8829 11.0972 11.9302 11.1708 11.963C11.2444 11.9958 11.3238 12.0135 11.4044 12.0149C11.4849 12.0163 11.565 12.0015 11.6397 11.9713C11.7144 11.9411 11.7823 11.8962 11.8392 11.8392C11.8962 11.7823 11.9411 11.7144 11.9713 11.6397C12.0015 11.565 12.0163 11.4849 12.0149 11.4044C12.0135 11.3238 11.9958 11.2444 11.963 11.1708C11.9302 11.0972 11.8829 11.0309 11.824 10.976L8.848 8L11.824 5.024C11.93 4.91026 11.9877 4.75982 11.9849 4.60438C11.9822 4.44894 11.9192 4.30063 11.8093 4.1907C11.6994 4.08077 11.5511 4.0178 11.3956 4.01506C11.2402 4.01232 11.0897 4.07002 10.976 4.176L8 7.152L5.024 4.176Z" fill="var(--fill-0, black)"/>
<path d="M5.024 4.176L5.87253 3.32747L5.85756 3.3125L5.84207 3.29807L5.024 4.176ZM4.176 5.024L3.29807 5.84207L3.3125 5.85756L3.32747 5.87253L4.176 5.024ZM7.152 8L8.00053 8.84853L8.84906 8L8.00053 7.15147L7.152 8ZM4.176 10.976L4.99407 11.8539L5.00956 11.8395L5.02453 11.8245L4.176 10.976ZM4.59562 12.0149L4.61679 13.2147L4.59562 12.0149ZM5.024 11.824L4.17547 10.9755L4.1605 10.9904L4.14607 11.0059L5.024 11.824ZM8 8.848L8.84853 7.99947L8 7.15094L7.15147 7.99947L8 8.848ZM10.976 11.824L11.8539 11.0059L11.8395 10.9904L11.8245 10.9755L10.976 11.824ZM11.4044 12.0149L11.3832 13.2147L11.4044 12.0149ZM11.824 10.976L10.9755 11.8245L10.9904 11.8395L11.0059 11.8539L11.824 10.976ZM8.848 8L7.99947 7.15147L7.15094 8L7.99947 8.84853L8.848 8ZM11.824 5.024L12.6725 5.87253L12.6875 5.85756L12.7019 5.84207L11.824 5.024ZM11.9849 4.60438L10.7851 4.62555L11.9849 4.60438ZM10.976 4.176L10.1579 3.29807L10.1424 3.3125L10.1275 3.32747L10.976 4.176ZM8 7.152L7.15147 8.00053L8 8.84906L8.84853 8.00053L8 7.152ZM5.024 4.176L5.84207 3.29807C5.50085 2.98011 5.04953 2.80702 4.58321 2.81525L4.60438 4.01506L4.62555 5.21487C4.47011 5.21762 4.31967 5.15992 4.20593 5.05393L5.024 4.176ZM4.60438 4.01506L4.58321 2.81525C4.11689 2.82347 3.67197 3.01238 3.34217 3.34217L4.1907 4.1907L5.03923 5.03923C4.9293 5.14916 4.78099 5.21213 4.62555 5.21487L4.60438 4.01506ZM4.1907 4.1907L3.34217 3.34217C3.01238 3.67197 2.82347 4.11689 2.81525 4.58321L4.01506 4.60438L5.21487 4.62555C5.21213 4.78099 5.14916 4.9293 5.03923 5.03923L4.1907 4.1907ZM4.01506 4.60438L2.81525 4.58321C2.80702 5.04953 2.98011 5.50085 3.29807 5.84207L4.176 5.024L5.05393 4.20593C5.15992 4.31967 5.21762 4.47011 5.21487 4.62555L4.01506 4.60438ZM4.176 5.024L3.32747 5.87253L6.30347 8.84853L7.152 8L8.00053 7.15147L5.02453 4.17547L4.176 5.024ZM7.152 8L6.30347 7.15147L3.32747 10.1275L4.176 10.976L5.02453 11.8245L8.00053 8.84853L7.152 8ZM4.176 10.976L3.35793 10.0981C3.18109 10.2629 3.03924 10.4616 2.94086 10.6824L4.03698 11.1708L5.13309 11.6592C5.1003 11.7328 5.05302 11.799 4.99407 11.8539L4.176 10.976ZM4.03698 11.1708L2.94086 10.6824C2.84248 10.9032 2.78958 11.1415 2.78531 11.3832L3.98513 11.4044L5.18494 11.4256C5.18352 11.5061 5.16589 11.5856 5.13309 11.6592L4.03698 11.1708ZM3.98513 11.4044L2.78531 11.3832C2.78105 11.6249 2.82551 11.865 2.91604 12.0891L4.0287 11.6397L5.14136 11.1903C5.17154 11.265 5.18636 11.345 5.18494 11.4256L3.98513 11.4044ZM4.0287 11.6397L2.91604 12.0891C3.00657 12.3132 3.14132 12.5168 3.31224 12.6878L4.16077 11.8392L5.0093 10.9907C5.06627 11.0477 5.11119 11.1155 5.14136 11.1903L4.0287 11.6397ZM4.16077 11.8392L3.31224 12.6878C3.48316 12.8587 3.68676 12.9934 3.9109 13.084L4.36032 11.9713L4.80974 10.8586C4.88446 10.8888 4.95233 10.9337 5.0093 10.9907L4.16077 11.8392ZM4.36032 11.9713L3.9109 13.084C4.13503 13.1745 4.3751 13.219 4.61679 13.2147L4.59562 12.0149L4.57445 10.8151C4.65501 10.8136 4.73504 10.8285 4.80974 10.8586L4.36032 11.9713ZM4.59562 12.0149L4.61679 13.2147C4.85848 13.2104 5.09683 13.1575 5.31762 13.0591L4.82923 11.963L4.34084 10.8669C4.41443 10.8341 4.49388 10.8165 4.57445 10.8151L4.59562 12.0149ZM4.82923 11.963L5.31762 13.0591C5.53842 12.9608 5.73715 12.8189 5.90193 12.6421L5.024 11.824L4.14607 11.0059C4.201 10.947 4.26724 10.8997 4.34084 10.8669L4.82923 11.963ZM5.024 11.824L5.87253 12.6725L8.84853 9.69653L8 8.848L7.15147 7.99947L4.17547 10.9755L5.024 11.824ZM8 8.848L7.15147 9.69653L10.1275 12.6725L10.976 11.824L11.8245 10.9755L8.84853 7.99947L8 8.848ZM10.976 11.824L10.0981 12.6421C10.2629 12.8189 10.4616 12.9608 10.6824 13.0591L11.1708 11.963L11.6592 10.8669C11.7328 10.8997 11.799 10.947 11.8539 11.0059L10.976 11.824ZM11.1708 11.963L10.6824 13.0591C10.9032 13.1575 11.1415 13.2104 11.3832 13.2147L11.4044 12.0149L11.4256 10.8151C11.5061 10.8165 11.5856 10.8341 11.6592 10.8669L11.1708 11.963ZM11.4044 12.0149L11.3832 13.2147C11.6249 13.219 11.865 13.1745 12.0891 13.084L11.6397 11.9713L11.1903 10.8586C11.265 10.8285 11.345 10.8136 11.4256 10.8151L11.4044 12.0149ZM11.6397 11.9713L12.0891 13.084C12.3132 12.9934 12.5168 12.8587 12.6878 12.6878L11.8392 11.8392L10.9907 10.9907C11.0477 10.9337 11.1155 10.8888 11.1903 10.8586L11.6397 11.9713ZM11.8392 11.8392L12.6878 12.6878C12.8587 12.5168 12.9934 12.3132 13.084 12.0891L11.9713 11.6397L10.8586 11.1903C10.8888 11.1155 10.9337 11.0477 10.9907 10.9907L11.8392 11.8392ZM11.9713 11.6397L13.084 12.0891C13.1745 11.865 13.219 11.6249 13.2147 11.3832L12.0149 11.4044L10.8151 11.4256C10.8136 11.345 10.8285 11.265 10.8586 11.1903L11.9713 11.6397ZM12.0149 11.4044L13.2147 11.3832C13.2104 11.1415 13.1575 10.9032 13.0591 10.6824L11.963 11.1708L10.8669 11.6592C10.8341 11.5856 10.8165 11.5061 10.8151 11.4256L12.0149 11.4044ZM11.963 11.1708L13.0591 10.6824C12.9608 10.4616 12.8189 10.2629 12.6421 10.0981L11.824 10.976L11.0059 11.8539C10.947 11.799 10.8997 11.7328 10.8669 11.6592L11.963 11.1708ZM11.824 10.976L12.6725 10.1275L9.69653 7.15147L8.848 8L7.99947 8.84853L10.9755 11.8245L11.824 10.976ZM8.848 8L9.69653 8.84853L12.6725 5.87253L11.824 5.024L10.9755 4.17547L7.99947 7.15147L8.848 8ZM11.824 5.024L12.7019 5.84207C13.0199 5.50085 13.193 5.04954 13.1848 4.58321L11.9849 4.60438L10.7851 4.62555C10.7824 4.47011 10.8401 4.31967 10.9461 4.20593L11.824 5.024ZM11.9849 4.60438L13.1848 4.58321C13.1765 4.11689 12.9876 3.67196 12.6578 3.34217L11.8093 4.1907L10.9608 5.03923C10.8508 4.9293 10.7879 4.78099 10.7851 4.62555L11.9849 4.60438ZM11.8093 4.1907L12.6578 3.34217C12.328 3.01238 11.8831 2.82347 11.4168 2.81525L11.3956 4.01506L11.3744 5.21487C11.219 5.21213 11.0707 5.14916 10.9608 5.03923L11.8093 4.1907ZM11.3956 4.01506L11.4168 2.81525C10.9505 2.80702 10.4992 2.98011 10.1579 3.29807L10.976 4.176L11.7941 5.05393C11.6803 5.15992 11.5299 5.21762 11.3744 5.21487L11.3956 4.01506ZM10.976 4.176L10.1275 3.32747L7.15147 6.30347L8 7.152L8.84853 8.00053L11.8245 5.02453L10.976 4.176ZM8 7.152L8.84853 6.30347L5.87253 3.32747L5.024 4.176L4.17547 5.02453L7.15147 8.00053L8 7.152Z" fill="var(--stroke-0, black)" mask="url(#path-1-inside-1_0_7)"/>
</g>
</g>
</svg>
